<?xml version="1.0" standalone="no"?>
<svg xmlns="http://www.w3.org/2000/svg" viewBox="0 0 129.411 29" width="129.411" height="29"><g fill="#6E57E0" color="#6E57E0" transform="translate(0, 0) scale(0.29)"><svg width="100.0" height="100.0" x="0.0" y="0.0" viewBox="0 0 100 100"><path d="M84.7,58.6C66.4,59.3,81.2,88.2,49.3,94S0.3,78.9,13.9,58.6s14.6-49.8,39-53.5S102.9,57.9,84.7,58.6z"></path></svg></g><line x1="41" y1="1" x2="41" y2="28" stroke="#000000" stroke-linecap="round"></line><path fill="#000000" fill-rule="nonzero" d="M0 22.25L0 2.24L2.46 2.24L7.31 15.63L7.38 15.63Q7.35 15.16 7.29 14.59Q7.23 14.02 7.18 13.28Q7.14 12.55 7.10 11.63Q7.07 10.70 7.07 9.54L7.07 9.54L7.07 2.24L9.79 2.24L9.79 22.25L7.30 22.25L2.47 9.21L2.38 9.21Q2.41 9.74 2.47 10.35Q2.53 10.97 2.58 11.80Q2.63 12.63 2.66 13.74Q2.70 14.85 2.70 16.37L2.70 16.37L2.70 22.25L0 22.25ZM15.25 22.43L15.25 22.43Q14.50 22.43 13.92 22.13Q13.34 21.83 12.94 21.32Q12.54 20.80 12.33 20.09Q12.13 19.38 12.13 18.55L12.13 18.55Q12.13 17.55 12.38 16.78Q12.62 16.01 13.10 15.39Q13.57 14.77 14.27 14.26Q14.98 13.75 15.90 13.29L15.90 13.29Q16.35 13.07 16.90 12.84Q17.46 12.61 17.89 12.45L17.89 12.45L17.89 10.31Q17.89 9.84 17.86 9.44Q17.82 9.04 17.69 8.74Q17.55 8.44 17.29 8.27Q17.02 8.10 16.55 8.10L16.55 8.10Q16.23 8.10 15.93 8.21Q15.63 8.33 15.40 8.61Q15.18 8.89 15.04 9.36Q14.91 9.83 14.91 10.52L14.91 10.52L14.91 11.23L12.64 11.23Q12.54 10.77 12.49 10.39Q12.43 10.01 12.43 9.63L12.43 9.63Q12.43 8.73 12.74 8.04Q13.05 7.35 13.61 6.88Q14.17 6.41 14.94 6.17Q15.71 5.93 16.64 5.93L16.64 5.93Q17.85 5.93 18.64 6.19Q19.44 6.46 19.92 6.98Q20.39 7.51 20.58 8.31Q20.78 9.11 20.78 10.17L20.78 10.17L20.78 22.25L18.57 22.25L18.36 20.87Q17.88 21.56 17.08 22.00Q16.28 22.43 15.25 22.43ZM16.56 20.14L16.56 20.14Q16.93 20.14 17.29 19.95Q17.65 19.76 17.89 19.48L17.89 19.48L17.89 14.43Q17.66 14.52 17.37 14.65Q17.07 14.78 16.73 14.99L16.73 14.99Q16.42 15.19 16.11 15.47Q15.81 15.75 15.57 16.14Q15.33 16.52 15.18 17.01Q15.04 17.50 15.04 18.09L15.04 18.09Q15.04 19.02 15.40 19.58Q15.76 20.14 16.56 20.14ZM23.85 22.25L23.85 6.12L26.02 6.12L26.27 7.76Q26.77 6.84 27.40 6.39Q28.04 5.93 28.71 5.93L28.71 5.93Q29.99 5.93 30.60 6.71Q31.21 7.50 31.21 9.07L31.21 9.07Q31.21 9.27 31.18 9.54Q31.15 9.82 31.10 10.12Q31.04 10.42 30.97 10.72Q30.89 11.02 30.81 11.26L30.81 11.26L28.75 11.26L28.75 9.76Q28.75 9.27 28.68 8.95Q28.62 8.64 28.51 8.44Q28.41 8.25 28.27 8.17Q28.13 8.10 27.96 8.10L27.96 8.10Q27.61 8.10 27.31 8.33Q27.01 8.55 26.81 8.96L26.81 8.96L26.81 22.25L23.85 22.25ZM36.18 22.44L36.18 22.44Q35.91 22.44 35.54 22.39Q35.18 22.34 34.79 22.15Q34.41 21.96 34.03 21.59Q33.66 21.21 33.36 20.56Q33.07 19.91 32.89 18.95Q32.71 17.99 32.71 16.62L32.71 16.62L32.71 11.50Q32.71 10.14 32.90 9.20Q33.09 8.26 33.41 7.65Q33.73 7.03 34.12 6.69Q34.51 6.34 34.90 6.18Q35.30 6.01 35.65 5.98Q36.01 5.94 36.25 5.94L36.25 5.94Q36.68 5.94 37.07 6.06Q37.45 6.18 37.77 6.37Q38.09 6.56 38.33 6.80Q38.58 7.04 38.74 7.29L38.74 7.29L38.75 7.28L38.66 5.24L38.66 0.94L41.61 0.94L41.61 22.25L39.30 22.25L39.05 20.75Q38.85 21.07 38.59 21.38Q38.33 21.68 37.98 21.92Q37.63 22.16 37.18 22.30Q36.74 22.44 36.18 22.44ZM37.18 20.14L37.18 20.14Q37.48 20.14 37.71 20.04Q37.93 19.95 38.12 19.79Q38.30 19.63 38.43 19.42Q38.57 19.21 38.66 18.98L38.66 18.98L38.66 9.28Q38.44 8.79 38.07 8.44Q37.70 8.10 37.17 8.10L37.17 8.10Q36.84 8.10 36.57 8.21Q36.30 8.33 36.11 8.65Q35.91 8.98 35.79 9.54Q35.68 10.11 35.68 11.02L35.68 11.02L35.68 17.20Q35.68 18.11 35.79 18.68Q35.91 19.25 36.11 19.58Q36.30 19.90 36.58 20.02Q36.86 20.14 37.18 20.14ZM46.24 3.81L46.24 3.81Q45.42 3.81 44.95 3.32Q44.47 2.82 44.47 1.88L44.47 1.88Q44.47 1.35 44.60 0.99Q44.72 0.63 44.95 0.42Q45.18 0.20 45.50 0.10Q45.83 0 46.25 0L46.25 0Q47.13 0 47.59 0.45Q48.05 0.89 48.05 1.88L48.05 1.88Q48.05 2.79 47.58 3.30Q47.12 3.81 46.24 3.81ZM44.71 22.25L44.71 6.12L47.67 6.12L47.67 22.25L44.71 22.25ZM50.77 22.25L50.77 6.12L53.05 6.12L53.32 7.84L53.32 7.85Q53.67 7.30 54.08 6.93Q54.48 6.56 54.91 6.34Q55.35 6.12 55.80 6.02Q56.25 5.93 56.70 5.93L56.70 5.93Q58.11 5.93 58.88 6.92Q59.65 7.91 59.65 9.89L59.65 9.89L59.65 22.25L56.68 22.25L56.68 10.00Q56.68 8.93 56.36 8.51Q56.03 8.10 55.39 8.10L55.39 8.10Q54.95 8.10 54.51 8.39Q54.07 8.68 53.73 9.20L53.73 9.20L53.73 22.25L50.77 22.25ZM64.30 3.81L64.30 3.81Q63.48 3.81 63.01 3.32Q62.53 2.82 62.53 1.88L62.53 1.88Q62.53 1.35 62.65 0.99Q62.78 0.63 63.01 0.42Q63.23 0.20 63.56 0.10Q63.89 0 64.31 0L64.31 0Q65.19 0 65.65 0.45Q66.11 0.89 66.11 1.88L66.11 1.88Q66.11 2.79 65.64 3.30Q65.18 3.81 64.30 3.81ZM62.77 22.25L62.77 6.12L65.73 6.12L65.73 22.25L62.77 22.25ZM67.52 22.25L71.21 2.24L74.71 2.24L78.41 22.25L75.34 22.25L74.79 18.67L71.13 18.67L70.61 22.25L67.52 22.25ZM71.48 16.38L74.44 16.38L73.03 6.41L72.90 6.41L71.48 16.38Z" transform="translate(51, 3.374)"></path></svg>