<?xml version="1.0" standalone="no"?>
<svg xmlns="http://www.w3.org/2000/svg" viewBox="0 0 38.985 45.016" width="38.985" height="45.016"><polygon fill="none" stroke="#6E57E0" stroke-width="3" points="37.485,12.004 37.485,33.012 19.4925,43.516 1.5,33.012 1.5,12.004 19.4925,1.5"></polygon><path fill="#000000" fill-rule="nonzero" d="M0 20.02L0 0L2.46 0L7.31 13.39L7.38 13.39Q7.35 12.93 7.29 12.35Q7.23 11.78 7.18 11.04Q7.14 10.31 7.10 9.39Q7.07 8.46 7.07 7.30L7.07 7.30L7.07 0L9.79 0L9.79 20.02L7.30 20.02L2.47 6.97L2.38 6.97Q2.41 7.50 2.47 8.12Q2.53 8.73 2.58 9.56Q2.63 10.39 2.66 11.50Q2.70 12.61 2.70 14.13L2.70 14.13L2.70 20.02L0 20.02Z" transform="translate(14.6, 12.501)"></path></svg>